<svg xmlns="http://www.w3.org/2000/svg" id="Layer_1" alt="Smart Customizer logo" width="202.79" height="39" viewBox="0 0 202.79 39">
                    <circle cx="35.25" cy="3.75" r="3.75" style="fill: #121212;"></circle>
                    <path d="M34.91,18.5a3,3,0,0,0-1.7,3.89,11.82,11.82,0,0,1,.85,4.36,12,12,0,1,1-12-12,11.82,11.82,0,0,1,4.36.85A3,3,0,1,0,28.61,10,18,18,0,1,0,40.06,26.75a17.66,17.66,0,0,0-1.27-6.55A3,3,0,0,0,34.91,18.5Z" transform="translate(-4.06 -5.75)" style="fill: #121212;"></path>
                    <path d="M53.33,31.44l1.23-1.64a7.23,7.23,0,0,0,1.56.8,4.53,4.53,0,0,0,1.48.26,2.76,2.76,0,0,0,1.32-.27.81.81,0,0,0,.5-.72.69.69,0,0,0-.28-.57,1.92,1.92,0,0,0-.89-.31l-1.8-.27a3.85,3.85,0,0,1-2.12-.9A2.37,2.37,0,0,1,53.6,26a2.6,2.6,0,0,1,1.06-2.16A4.59,4.59,0,0,1,57.51,23a6.78,6.78,0,0,1,2,.3,7.6,7.6,0,0,1,1.85.87l-1.19,1.59a7.6,7.6,0,0,0-1.47-.68,4.69,4.69,0,0,0-1.43-.22,2,2,0,0,0-1.07.25.75.75,0,0,0-.4.66.69.69,0,0,0,.29.59,2.31,2.31,0,0,0,1,.3l1.8.27a3.77,3.77,0,0,1,2.11.9,2.32,2.32,0,0,1,.75,1.78,2.51,2.51,0,0,1-.32,1.23,3.06,3.06,0,0,1-.85,1,4.06,4.06,0,0,1-1.3.65,5.37,5.37,0,0,1-1.64.23,8.37,8.37,0,0,1-2.39-.33A5.62,5.62,0,0,1,53.33,31.44Z" transform="translate(-4.06 -5.75)" style="fill: #121212;"></path>
                    <path d="M63.32,32.55V23.18h2.47v.7a3.59,3.59,0,0,1,1.11-.66A3.88,3.88,0,0,1,68.24,23a3.57,3.57,0,0,1,1.62.36,3.26,3.26,0,0,1,1.2,1,3.61,3.61,0,0,1,1.35-1A4.18,4.18,0,0,1,74.16,23a3.4,3.4,0,0,1,2.57,1,3.72,3.72,0,0,1,1,2.68v5.83H75.27V27.08a2.1,2.1,0,0,0-.47-1.42,1.64,1.64,0,0,0-1.29-.54,2.19,2.19,0,0,0-1,.24,2.35,2.35,0,0,0-.78.7c0,.1,0,.21,0,.32s0,.22,0,.34v5.83H69.3V27.08a2.05,2.05,0,0,0-.48-1.42,1.64,1.64,0,0,0-1.29-.54,2.1,2.1,0,0,0-1.74.85v6.58Z" transform="translate(-4.06 -5.75)" style="fill: #121212;"></path>
                    <path d="M83,32.72a3.74,3.74,0,0,1-2.47-.8,2.61,2.61,0,0,1-.95-2.08,2.43,2.43,0,0,1,1-2.09A4.61,4.61,0,0,1,83.39,27a7.53,7.53,0,0,1,2.29.36v-.66a1.5,1.5,0,0,0-.51-1.23,2.28,2.28,0,0,0-1.47-.41,4.74,4.74,0,0,0-1.29.19,10.37,10.37,0,0,0-1.57.58L79.94,24a12.36,12.36,0,0,1,2.13-.75,8.5,8.5,0,0,1,2-.25,4.38,4.38,0,0,1,2.94.9,3.21,3.21,0,0,1,1.06,2.57v6.08H85.68v-.64a4.66,4.66,0,0,1-1.25.61A5.17,5.17,0,0,1,83,32.72ZM81.9,29.78a1,1,0,0,0,.47.86,2.17,2.17,0,0,0,1.24.31,3.94,3.94,0,0,0,1.12-.15,3.58,3.58,0,0,0,1-.44V29a4.93,4.93,0,0,0-1-.26,6.83,6.83,0,0,0-1-.08,2.4,2.4,0,0,0-1.33.32A1,1,0,0,0,81.9,29.78Z" transform="translate(-4.06 -5.75)" style="fill: #121212;"></path>
                    <path d="M90.34,32.55V23.18h2.47v1a3,3,0,0,1,1.08-.93A3.32,3.32,0,0,1,95.31,23a4.31,4.31,0,0,1,.6.06,1.11,1.11,0,0,1,.42.16v2.16a2.15,2.15,0,0,0-.59-.19,3.71,3.71,0,0,0-.67-.07,2.52,2.52,0,0,0-1.32.36,2.41,2.41,0,0,0-.94,1v6.06Z" transform="translate(-4.06 -5.75)" style="fill: #121212;"></path>
                    <path d="M99.45,29.91V25.25H97.52V23.18h1.93v-2.4l2.46-.56v3h2.67v2.07h-2.67V29.4a1.26,1.26,0,0,0,.29.94,1.47,1.47,0,0,0,1,.27,4.54,4.54,0,0,0,.65,0,3.29,3.29,0,0,0,.66-.18v2a7.25,7.25,0,0,1-1,.21,7.41,7.41,0,0,1-.95.08,3.48,3.48,0,0,1-2.37-.71A2.63,2.63,0,0,1,99.45,29.91Z" transform="translate(-4.06 -5.75)" style="fill: #121212;"></path>
                    <path d="M114.73,30.57a2.78,2.78,0,0,0,1.18-.25,3.53,3.53,0,0,0,1-.79l1.48,1.53a5,5,0,0,1-1.73,1.23,5.06,5.06,0,0,1-2.09.44,4.94,4.94,0,0,1-3.5-1.4,4.76,4.76,0,0,1-1-1.54,4.86,4.86,0,0,1,2.61-6.42,5,5,0,0,1,1.93-.37,5.22,5.22,0,0,1,2.14.44,4.87,4.87,0,0,1,1.75,1.23L117,26.27a3.77,3.77,0,0,0-1.08-.84,2.67,2.67,0,0,0-1.25-.29,2.35,2.35,0,0,0-1.79.79,2.8,2.8,0,0,0-.73,1.94,2.67,2.67,0,0,0,.75,1.93A2.43,2.43,0,0,0,114.73,30.57Z" transform="translate(-4.06 -5.75)" style="fill: #121212;"></path>
                    <path d="M122.47,23.18v5.45a2,2,0,0,0,.53,1.44,1.89,1.89,0,0,0,1.41.54,2.57,2.57,0,0,0,1.13-.24,2.21,2.21,0,0,0,.82-.7V23.18h2.46v9.37h-2.46V31.8a4,4,0,0,1-1.21.69,4.18,4.18,0,0,1-1.44.24,3.58,3.58,0,0,1-2.66-1A3.65,3.65,0,0,1,120,29V23.18Z" transform="translate(-4.06 -5.75)" style="fill: #121212;"></path>
                    <path d="M130.32,31.44l1.22-1.64a7.29,7.29,0,0,0,1.57.8,4.47,4.47,0,0,0,1.47.26,2.8,2.8,0,0,0,1.33-.27.8.8,0,0,0,.49-.72.67.67,0,0,0-.28-.57,1.83,1.83,0,0,0-.89-.31l-1.8-.27a3.81,3.81,0,0,1-2.11-.9,2.37,2.37,0,0,1-.73-1.82,2.57,2.57,0,0,1,1.06-2.16,4.56,4.56,0,0,1,2.84-.81,6.73,6.73,0,0,1,2,.3,7.27,7.27,0,0,1,1.85.87l-1.18,1.59a7.66,7.66,0,0,0-1.48-.68,4.62,4.62,0,0,0-1.42-.22,2,2,0,0,0-1.07.25.76.76,0,0,0-.41.66.67.67,0,0,0,.3.59,2.26,2.26,0,0,0,1,.3l1.8.27a3.8,3.8,0,0,1,2.12.9,2.35,2.35,0,0,1,.74,1.78,2.5,2.5,0,0,1-.31,1.23,3.09,3.09,0,0,1-.86,1,4.11,4.11,0,0,1-1.29.65,5.42,5.42,0,0,1-1.64.23,8.49,8.49,0,0,1-2.4-.33A5.48,5.48,0,0,1,130.32,31.44Z" transform="translate(-4.06 -5.75)" style="fill: #121212;"></path>
                    <path d="M141.41,29.91V25.25h-1.93V23.18h1.93v-2.4l2.46-.56v3h2.67v2.07h-2.67V29.4a1.26,1.26,0,0,0,.29.94,1.47,1.47,0,0,0,1,.27,4.63,4.63,0,0,0,.65,0,3.29,3.29,0,0,0,.66-.18v2a7.25,7.25,0,0,1-.95.21,7.41,7.41,0,0,1-1,.08,3.47,3.47,0,0,1-2.36-.71A2.63,2.63,0,0,1,141.41,29.91Z" transform="translate(-4.06 -5.75)" style="fill: #121212;"></path>
                    <path d="M147.6,27.87a4.73,4.73,0,0,1,1.45-3.46,5.24,5.24,0,0,1,5.51-1,5,5,0,0,1,1.6,1A4.8,4.8,0,0,1,157.22,26a4.83,4.83,0,0,1-1.06,5.37,5.18,5.18,0,0,1-1.6,1,5.38,5.38,0,0,1-3.92,0,5.25,5.25,0,0,1-1.59-1A4.68,4.68,0,0,1,148,29.79,4.87,4.87,0,0,1,147.6,27.87Zm5,2.72a2.45,2.45,0,0,0,1.84-.79,2.87,2.87,0,0,0,0-3.87,2.45,2.45,0,0,0-1.84-.79,2.42,2.42,0,0,0-1.83.79,2.84,2.84,0,0,0,0,3.87A2.42,2.42,0,0,0,152.6,30.59Z" transform="translate(-4.06 -5.75)" style="fill: #121212;"></path>
                    <path d="M159.48,32.55V23.18h2.46v.7a3.64,3.64,0,0,1,1.12-.66,3.83,3.83,0,0,1,1.33-.22,3.62,3.62,0,0,1,1.63.36,3.26,3.26,0,0,1,1.2,1,3.61,3.61,0,0,1,1.35-1,4.17,4.17,0,0,1,1.74-.36,3.41,3.41,0,0,1,2.58,1,3.72,3.72,0,0,1,1,2.68v5.83h-2.47V27.08a2.05,2.05,0,0,0-.48-1.42,1.62,1.62,0,0,0-1.28-.54,2.12,2.12,0,0,0-1.8.94l0,.32c0,.11,0,.22,0,.34v5.83h-2.47V27.08a2.1,2.1,0,0,0-.47-1.42,1.64,1.64,0,0,0-1.29-.54,2.12,2.12,0,0,0-1,.22,2.16,2.16,0,0,0-.76.63v6.58Z" transform="translate(-4.06 -5.75)" style="fill: #121212;"></path>
                    <path d="M177.37,22.06a1.42,1.42,0,0,1-1.41-1.4,1.43,1.43,0,0,1,1.41-1.41,1.42,1.42,0,0,1,1.4,1.41,1.4,1.4,0,0,1-1.4,1.4Zm1.24,1.12v9.37h-2.47V23.18Z" transform="translate(-4.06 -5.75)" style="fill: #121212;"></path>
                    <path d="M180.41,32.55V30.81l4.72-5.56h-4.68V23.18h7.84v1.74l-4.75,5.56h4.86v2.07Z" transform="translate(-4.06 -5.75)" style="fill: #121212;"></path>
                    <path d="M198.36,31.38a6.13,6.13,0,0,1-1.78,1,5.87,5.87,0,0,1-2,.32,5.26,5.26,0,0,1-2-.37,5.18,5.18,0,0,1-1.6-1,4.51,4.51,0,0,1-1.06-1.54,4.71,4.71,0,0,1-.39-1.92,4.79,4.79,0,0,1,.37-1.89,4.55,4.55,0,0,1,1-1.55,4.66,4.66,0,0,1,1.53-1,4.88,4.88,0,0,1,1.9-.38,4.42,4.42,0,0,1,1.85.39,4.59,4.59,0,0,1,1.47,1.05,4.89,4.89,0,0,1,1,1.6,5.68,5.68,0,0,1,.35,2v.65h-7a2.64,2.64,0,0,0,1,1.42,2.73,2.73,0,0,0,1.69.54,3.34,3.34,0,0,0,1.15-.19,2.74,2.74,0,0,0,.92-.56Zm-4.07-6.33a2.22,2.22,0,0,0-1.46.51,2.57,2.57,0,0,0-.84,1.38h4.59a2.77,2.77,0,0,0-.86-1.36A2.15,2.15,0,0,0,194.29,25.05Z" transform="translate(-4.06 -5.75)" style="fill: #121212;"></path>
                    <path d="M200.86,32.55V23.18h2.47v1a2.91,2.91,0,0,1,1.08-.93,3.32,3.32,0,0,1,1.42-.31,4.31,4.31,0,0,1,.6.06,1.11,1.11,0,0,1,.42.16v2.16a2.27,2.27,0,0,0-.59-.19,3.71,3.71,0,0,0-.67-.07,2.52,2.52,0,0,0-1.32.36,2.41,2.41,0,0,0-.94,1v6.06Z" transform="translate(-4.06 -5.75)" style="fill: #121212;"></path>
                </svg>