<?xml version="1.0" encoding="utf-8"?>
<!-- Generator: Adobe Illustrator 27.0.0, SVG Export Plug-In . SVG Version: 6.00 Build 0)  -->
<svg version="1.1" id="Layer_1" xmlns="http://www.w3.org/2000/svg" xmlns:xlink="http://www.w3.org/1999/xlink" x="0px" y="0px"
	 viewBox="0 0 256 256" style="enable-background:new 0 0 256 256;" xml:space="preserve">
<style type="text/css">
	.st0{fill:#23BFD2;}
	.st1{fill:#FFFFFF;}
</style>
<rect class="st0" width="256" height="256"/>
<g>
	<circle class="st1" cx="188.58" cy="67.42" r="14.42"/>
	<path class="st1" d="M171.63,102.05c-5.92,2.32-8.88,9-6.52,14.95c2.17,5.55,3.28,11.19,3.28,16.77
		c0,25.45-20.71,46.15-46.15,46.15s-46.15-20.71-46.15-46.15s20.71-46.15,46.15-46.15c5.58,0,11.22,1.1,16.77,3.28
		c5.93,2.33,12.63-0.59,14.95-6.52c2.37-5.96-0.6-12.64-6.52-14.95c-8.25-3.24-16.72-4.88-25.2-4.88C84.05,64.54,53,95.59,53,133.77
		S84.05,203,122.23,203s69.23-31.05,69.23-69.23c0-8.47-1.64-16.95-4.88-25.2C184.26,102.64,177.56,99.72,171.63,102.05z"/>
</g>
</svg>
